<?xml version="1.0" encoding="UTF-8" standalone="no"?>
<svg
   xmlns:dc="http://purl.org/dc/elements/1.1/"
   xmlns:cc="http://creativecommons.org/ns#"
   xmlns:rdf="http://www.w3.org/1999/02/22-rdf-syntax-ns#"
   xmlns:svg="http://www.w3.org/2000/svg"
   xmlns="http://www.w3.org/2000/svg"
   xmlns:sodipodi="http://sodipodi.sourceforge.net/DTD/sodipodi-0.dtd"
   xmlns:inkscape="http://www.inkscape.org/namespaces/inkscape"
   width="112.57919mm"
   height="111.79358mm"
   viewBox="0 0 112.57919 111.79358"
   version="1.1"
   id="svg41"
   inkscape:version="1.0.2 (1.0.2+r75+1)"
   sodipodi:docname="mercadona.svg">
  <defs
     id="defs35" />
  <sodipodi:namedview
     id="base"
     pagecolor="#ffffff"
     bordercolor="#666666"
     borderopacity="1.0"
     inkscape:pageopacity="0.0"
     inkscape:pageshadow="2"
     inkscape:zoom="0.98994949"
     inkscape:cx="172.47936"
     inkscape:cy="186.66814"
     inkscape:document-units="mm"
     inkscape:current-layer="g93"
     inkscape:document-rotation="0"
     showgrid="false"
     fit-margin-top="0"
     fit-margin-left="0"
     fit-margin-right="0"
     fit-margin-bottom="0"
     inkscape:window-width="1853"
     inkscape:window-height="1025"
     inkscape:window-x="67"
     inkscape:window-y="27"
     inkscape:window-maximized="1" />
  <metadata
     id="metadata38">
    <rdf:RDF>
      <cc:Work
         rdf:about="">
        <dc:format>image/svg+xml</dc:format>
        <dc:type
           rdf:resource="http://purl.org/dc/dcmitype/StillImage" />
        <dc:title></dc:title>
      </cc:Work>
    </rdf:RDF>
  </metadata>
  <g
     inkscape:label="Capa 1"
     inkscape:groupmode="layer"
     id="layer1"
     transform="translate(-59.034409,-140.8112)">
    <g
       id="g93"
       transform="matrix(0.26458333,0,0,0.26458333,87.33865,201.85979)">
      <g
         id="g151"
         transform="matrix(8.0508247,0,0,8.0508247,-907.34201,-115.95034)">
        <ellipse
           cx="125.83971"
           cy="11.983738"
           rx="25.383749"
           ry="25.199345"
           stroke="#229e6b"
           stroke-width="2.08375"
           id="ellipse10"
           style="fill:none" />
        <g
           id="g143"
           transform="matrix(1.4184827,0,0,1.4184827,-19.392701,51.163425)">
          <path
             d="m 111.35231,-27.932342 h -7.964 v -10.011 a 0.994,0.994 0 0 0 -0.981,-1.002 c -0.54,0 -0.982,0.45 -0.982,1.002 v 10.01 h -7.959999 c -0.689,0 -1.253,0.576 -1.253,1.278 v 9.082 c 0,0.703 0.564,1.277 1.253,1.277 h 17.885999 c 0.689,0 1.252,-0.574 1.252,-1.277 v -9.082 c 0,-0.702 -0.563,-1.277 -1.252,-1.277"
             fill="#fbbb17"
             id="path2" />
          <path
             d="m 114.66831,-35.943342 c 0.32,0.265 0.215,0.39 0.013,0.676 -0.664,0.941 -1.822,2.322 -1.908,3.14 -0.098,0.924 0.189,2.283 -0.839,3.228 -0.427,-0.024 -5.461,0 -5.461,0 1.001,-1.301 2.222,-3.629 4.156,-4.15 1.196,-0.321 2.032,-1.734 2.797,-2.869 0.395,-0.587 0.696,-0.476 1.242,-0.025"
             fill="#a71e59"
             id="path4" />
          <path
             d="m 108.97531,-33.560342 c -0.814,0.515 -1.308,1.08 -1.768,1.657 -1.042,1.311 -2.167,3.004 -2.167,3.004 h -0.52 c 0.706,-2.555 -0.441,-4.308 0.67,-4.996 0.745,-0.462 1.09,0.26 2.145,-0.278 1.322,-0.675 1.64,0.612 1.64,0.612 m 6.743,2.308 c 0.177,0.094 0.257,0.32 0.219,0.52 -0.15,0.773 0.96,1.402 0.15,1.988 -0.806,0.582 -0.595,0.96 -1.067,0.96 -0.587,0 -0.29,-0.723 -1.607,-1.114 0.283,-0.513 0.441,-0.72 0.498,-2.25 0.586,-0.32 1.33,-0.358 1.808,-0.104 m -21.414999,-4.677 c 1.293,-0.828 1.071,1.08 1.685,0.706 0.327,-0.2 0.64,-0.038 0.679,0.215 0.094,0.62 -0.683,1.718 -0.653,2.4 0.002,0.035 -0.026,0.063 -0.061,0.059 -0.131,-0.016 -0.228,-0.014 -0.702,0.107 -0.423,0.109 -0.93,0.456 -0.93,0.456 -0.628,-0.219 -1.207,-0.573 -1.849,-0.931 -0.473,-0.264 -0.59,-0.468 -0.595,-0.86 -0.005,-0.475 0.364,-0.57 0.22,-0.882 -0.198,-0.431 -0.397,-0.938 -0.17,-1.355 0.125,-0.206 0.385,-0.432 0.64,-0.422 0.88,-0.02 1.007,0.973 1.736,0.507 m -3.406,1.758 c 0.059,0.12 0.087,0.181 0.016,0.314 -0.235,0.438 -0.045,0.909 0.267,1.345 0.516,0.722 2.001,1.137 2.678,1.358 l -0.186,0.595 c -1.53,-0.404 -2.487,-0.271 -3.638,0.016 0,0 -0.644,0.283 -1.046,-0.088 -0.404,-0.371 -0.213,-0.836 0,-1.024 0,0 -0.904,-0.573 -0.5,-1.416 0.316,-0.66 0.928,-0.565 0.928,-0.565 0,0 -0.143,-0.727 0.507,-1.062 0.393,-0.202 0.736,0.049 0.736,0.049 0.103,0.233 0.178,0.353 0.238,0.478 m 2.54,4.612 v 0.662 c -1.44,-0.049 -2.087,0.465 -2.454,1.601 -0.4,1.516 -2.827,0.878 -2.01,-1.165 0.625,-1.44 2.89,-1.596 4.463,-1.099"
             fill="#bbd43a"
             id="path6" />
          <path
             d="m 100.38131,-32.004342 c -0.547999,-0.028 -1.110999,0.11 -1.505999,0.405 -1.165,-0.744 -2.03,-0.555 -1.939,-0.693 0.495,-0.75 2.047,-1.388 3.452999,-0.721 0,0 0.017,0.778 -0.008,1.009 m -2.282999,0.935 a 9.481,9.481 0 0 0 -0.212,0.224 c -0.698,0.768 -0.763,1.872 -0.763,1.872 h -2.706 c -0.066,-0.378 -0.067,-0.809 -0.001,-1.104 0.226,-1.02 0.893,-1.523 1.985,-1.522 0.6,0 1.216,0.161 1.69,0.444 0.03,0.018 0.031,0.061 0.007,0.086 m 2.296999,2.17 h -2.279999 c 0.064,-1.24 0.824,-1.972 1.405,-2.154 0.205,-0.064 0.553999,-0.121 0.874999,-0.119 z"
             fill="#f05c2c"
             id="path8" />
        </g>
      </g>
    </g>
  </g>
</svg>
